# xmcd
#
# Track frame offsets:
#	182
#	17617
#	31302
#	45895
#	74675
#	90370
#	107012
#	124370
#	143287
#	159575
#
# Disc length: 2375 seconds
#
# Revision: 1
# Processed by: cddbd v1.4PL0 Copyright (c) Steve Scherf et al.
# Submitted via: audiograbber 1.81.03
#
DISCID=7509450a
DTITLE=Alabama and Ronnie Milsap - Christmas In Dixie
DYEAR=1997
DGENRE=Country
TTITLE0=Ronnie Milsap - O Holy Night
TTITLE1=Ronnie Milsap - Silver Bells
TTITLE2=Ronnie Milsap - I'll Be Home For Christmas
TTITLE3=Ronnie Milsap - Carol Of The Bells-O Come O Come Emanual-Silent Night-J
TTITLE3=oy To The World
TTITLE4=Ronnie Milsap - Only One Night Of The Year
TTITLE5=Alabama - Tennessee Christmas
TTITLE6=Alabama - A Candle In The Window
TTITLE7=Alabama - Santa Claus (I Still Believe In You)
TTITLE8=Alabama - Christmas In Dixie
TTITLE9=Alabama - Joseph And Mary's Boy
EXTD=
EXTT0=
EXTT1=
EXTT2=
EXTT3=
EXTT4=
EXTT5=
EXTT6=
EXTT7=
EXTT8=
EXTT9=
PLAYORDER=
